<?xml version="1.0" encoding="UTF-8"?>
<svg xmlns="http://www.w3.org/2000/svg" id="developing" width="88.828" height="88.828" viewBox="0 0 88.828 88.828">
  <path id="Path_12688" data-name="Path 12688" d="M47.19,88.828H41.638A8.328,8.328,0,0,1,33.311,80.5,2.776,2.776,0,0,0,31.534,78a11.792,11.792,0,0,1-1.832-.666,2.776,2.776,0,0,0-3.026.389,8.328,8.328,0,0,1-11.631,0L11.1,73.783a8.328,8.328,0,0,1,0-11.631,2.776,2.776,0,0,0,.5-3.026,10.447,10.447,0,0,1-.861-1.832,2.776,2.776,0,0,0-2.415-1.777A8.328,8.328,0,0,1,0,47.19V41.638a8.328,8.328,0,0,1,8.328-8.328,2.776,2.776,0,0,0,2.5-1.777,11.792,11.792,0,0,1,.666-1.832,2.776,2.776,0,0,0-.389-3.026,8.328,8.328,0,0,1,0-11.631L15.045,11.1a8.328,8.328,0,0,1,11.631,0,2.776,2.776,0,0,0,3.026.5l1.832-.749a2.776,2.776,0,0,0,1.777-2.526A8.328,8.328,0,0,1,41.638,0H47.19a8.328,8.328,0,0,1,8.328,8.328,2.776,2.776,0,0,0,1.777,2.5l1.832.749a2.776,2.776,0,0,0,3.026-.472,8.328,8.328,0,0,1,11.631,0l3.942,3.942a8.328,8.328,0,0,1,0,11.631,2.776,2.776,0,0,0-.5,3.026q.416.916.749,1.832A2.776,2.776,0,0,0,80.5,33.311a8.328,8.328,0,0,1,8.328,8.328V47.19A8.328,8.328,0,0,1,80.5,55.518,2.776,2.776,0,0,0,78,57.294q-.333.916-.749,1.832a2.776,2.776,0,0,0,.472,3.026,8.328,8.328,0,0,1,0,11.631l-3.942,3.942a2.768,2.768,0,0,1-3.914-3.914l4.053-4.053a2.776,2.776,0,0,0,0-3.8,8.328,8.328,0,0,1-1.666-9.216c.25-.5.444-1.027.666-1.554A8.328,8.328,0,0,1,80.5,49.966a2.776,2.776,0,0,0,2.776-2.776V41.638A2.776,2.776,0,0,0,80.5,38.862a8.328,8.328,0,0,1-7.689-5.33,15.211,15.211,0,0,0-.638-1.554,8.328,8.328,0,0,1,1.666-9.216,2.776,2.776,0,0,0,0-3.8l-3.97-4.053a2.776,2.776,0,0,0-3.8,0,8.328,8.328,0,0,1-9.216,1.666c-.5-.25-1.027-.444-1.554-.666a8.328,8.328,0,0,1-5.33-7.578A2.776,2.776,0,0,0,47.19,5.552H41.638a2.776,2.776,0,0,0-2.776,2.776,8.328,8.328,0,0,1-5.33,7.689,15.21,15.21,0,0,0-1.554.638,8.328,8.328,0,0,1-9.216-1.666,2.776,2.776,0,0,0-3.8,0l-4.053,3.97a2.776,2.776,0,0,0,0,3.8,8.328,8.328,0,0,1,1.749,9.216c-.25.5-.444,1.027-.666,1.554a8.328,8.328,0,0,1-7.661,5.33,2.776,2.776,0,0,0-2.776,2.776V47.19a2.776,2.776,0,0,0,2.776,2.776,8.328,8.328,0,0,1,7.689,5.33,15.211,15.211,0,0,0,.638,1.554,8.328,8.328,0,0,1-1.666,9.216,2.776,2.776,0,0,0,0,3.8l4.053,4.053a2.776,2.776,0,0,0,3.8,0,8.328,8.328,0,0,1,9.216-1.666c.5.25,1.027.444,1.554.666A8.328,8.328,0,0,1,38.862,80.5a2.776,2.776,0,0,0,2.776,2.776H47.19A2.776,2.776,0,0,0,49.966,80.5a8.328,8.328,0,0,1,5.33-7.689,15.213,15.213,0,0,0,1.554-.638,2.783,2.783,0,1,1,2.276,5.08q-.916.416-1.832.749a2.776,2.776,0,0,0-1.777,2.5A8.328,8.328,0,0,1,47.19,88.828Z" transform="translate(0 0)" fill="#2e2e2e"></path>
  <path id="Path_12689" data-name="Path 12689" d="M18.114,37.794a2.776,2.776,0,0,1-1.971-.805L7.815,28.662a2.776,2.776,0,0,1,0-3.942l8.328-8.328a2.787,2.787,0,0,1,3.942,3.942L13.7,26.691l6.385,6.357a2.776,2.776,0,0,1-1.971,4.747Zm27.759,0A2.776,2.776,0,0,1,43.9,33.048l6.385-6.357L43.9,20.334a2.787,2.787,0,0,1,3.942-3.942l8.328,8.328a2.776,2.776,0,0,1,0,3.942l-8.328,8.328A2.776,2.776,0,0,1,45.873,37.794ZM29.217,43.346a2.776,2.776,0,0,1-2.776-3.331l5.552-27.759a2.831,2.831,0,1,1,5.552,1.11L31.993,41.125a2.776,2.776,0,0,1-2.776,2.221Z" transform="translate(12.421 17.723)" fill="#284d91"></path>
</svg>
