<?xml version="1.0" encoding="UTF-8"?>
<svg xmlns="http://www.w3.org/2000/svg" width="105.171" height="89.491" viewBox="0 0 105.171 89.491">
  <g id="Group_17561" data-name="Group 17561" transform="translate(-1461.507 -1569)">
    <g id="Find_code" data-name="Find code" transform="translate(1529.306 1578.473)">
      <circle id="Ellipse_1" data-name="Ellipse 1" cx="3.571" cy="3.571" r="3.571" transform="translate(0 0)" fill="#284d91"></circle>
      <circle id="Ellipse_2" data-name="Ellipse 2" cx="3.571" cy="3.571" r="3.571" transform="translate(10.712 0)" fill="#284d91"></circle>
      <circle id="Ellipse_3" data-name="Ellipse 3" cx="3.571" cy="3.571" r="3.571" transform="translate(21.424 0)" fill="#284d91"></circle>
    </g>
    <g id="idea" transform="translate(1476.07 1569)">
      <path id="Path_12692" data-name="Path 12692" d="M82.9,0H11.708A9.708,9.708,0,0,0,2,9.708V67.955a9.708,9.708,0,0,0,9.708,9.708H31.415a3.236,3.236,0,1,0,0-6.472H11.708a3.236,3.236,0,0,1-3.236-3.236V25.888h80.9a3.236,3.236,0,0,0,3.236-3.236V9.708A9.708,9.708,0,0,0,82.9,0ZM8.472,19.416V9.708a3.236,3.236,0,0,1,3.236-3.236H82.9a3.236,3.236,0,0,1,3.236,3.236v9.708ZM82.9,77.663H63.16a3.236,3.236,0,1,1,0-6.472H82.9a3.236,3.236,0,0,0,3.236-3.236V35.6a3.236,3.236,0,0,1,6.472,0v32.36A9.708,9.708,0,0,1,82.9,77.663Z" transform="translate(-2)" fill="#2e2e2e"></path>
    </g>
    <path id="Path_12700" data-name="Path 12700" d="M28.767,45.84A23.1,23.1,0,0,0,46.621,23.273a17.1,17.1,0,0,0-.107-2,1.8,1.8,0,0,0-3.571.428,15.2,15.2,0,0,1,.107,1.571A19.514,19.514,0,0,1,26.678,42.626a18.926,18.926,0,0,1-5.053.286,14.1,14.1,0,0,1-1.518-.2,19.639,19.639,0,1,1,16.6-33.779A1.785,1.785,0,1,0,39.14,6.33,23.21,23.21,0,1,0,18.055,45.84Z" transform="matrix(-0.391, 0.921, -0.921, -0.391, 1551.58, 1614.915)" fill="#2e2e2e" stroke="#2e2e2e" stroke-width="1"></path>
    <rect id="Rectangle_92" data-name="Rectangle 92" width="7.577" height="43.132" rx="3.789" transform="translate(1504.629 1615.251) rotate(110)" fill="#2e2e2e"></rect>
    <path id="bug" d="M21.817,15.989h2.331a1.166,1.166,0,0,0,0-2.331H21.817V12.492a6,6,0,0,0-.245-1.585A5.829,5.829,0,0,0,25.314,5.5a1.166,1.166,0,1,0-2.331,0,3.5,3.5,0,0,1-2.495,3.346A5.829,5.829,0,0,0,18.32,7.129a3.008,3.008,0,0,0,0-.466,4.663,4.663,0,0,0-9.326,0,3.008,3.008,0,0,0,0,.466A5.829,5.829,0,0,0,6.779,8.843,3.5,3.5,0,0,1,4.331,5.5,1.166,1.166,0,1,0,2,5.5a5.829,5.829,0,0,0,3.742,5.409A6,6,0,0,0,5.5,12.492v1.166H3.166a1.166,1.166,0,1,0,0,2.331H5.5v1.166a8.16,8.16,0,0,0,.163,1.609A5.829,5.829,0,0,0,2,24.149a1.166,1.166,0,0,0,2.331,0,3.5,3.5,0,0,1,2.11-3.194,8.16,8.16,0,0,0,14.432,0,3.5,3.5,0,0,1,2.11,3.194,1.166,1.166,0,1,0,2.331,0,5.829,5.829,0,0,0-3.66-5.386,8.16,8.16,0,0,0,.163-1.609Zm-9.326,6.878a5.829,5.829,0,0,1-4.663-5.712V12.492a3.5,3.5,0,0,1,3.5-3.5h1.166Zm-1.166-16.2a2.331,2.331,0,1,1,4.663,0Zm8.16,10.492a5.829,5.829,0,0,1-4.664,5.712V8.994h1.166a3.5,3.5,0,0,1,3.5,3.5Z" transform="translate(1507.876 1613.629)" fill="#284d91"></path>
  </g>
</svg>
